<?xml version="1.0" ?><svg width="20px" height="20px" viewBox="0 0 20 20" xmlns="http://www.w3.org/2000/svg"><defs><style>.cls-1{fill:none;}.cls-2{fill:#1b5cf3;}.cls-3{fill:#f92115;}.cls-4{fill:#190d15;}</style></defs><g data-name="Layer 2" id="Layer_2"><g data-name="Layer 1" id="Layer_1-2"><rect class="cls-1" height="20" width="20"/><path class="cls-2" d="M1,6.5H19a0,0,0,0,1,0,0v4.38a7,7,0,0,1-7,7H8a7,7,0,0,1-7-7V6.5A0,0,0,0,1,1,6.5Z"/><path class="cls-3" d="M5,10H3A3.35,3.35,0,0,1,3.67,8,1.41,1.41,0,0,0,4,7a1.41,1.41,0,0,0-.33-.95A3.4,3.4,0,0,1,3,4,3.35,3.35,0,0,1,3.67,2,1.41,1.41,0,0,0,4,1H6a3.41,3.41,0,0,1-.66,2.06A1.42,1.42,0,0,0,5,4a1.43,1.43,0,0,0,.34,1A3.36,3.36,0,0,1,6,7a3.41,3.41,0,0,1-.66,2.06A1.42,1.42,0,0,0,5,10Z"/><path class="cls-3" d="M9,10H7A3.35,3.35,0,0,1,7.67,8,1.41,1.41,0,0,0,8,7a1.41,1.41,0,0,0-.33-.95A3.4,3.4,0,0,1,7,4,3.35,3.35,0,0,1,7.67,2,1.41,1.41,0,0,0,8,1h2a3.41,3.41,0,0,1-.66,2.06A1.42,1.42,0,0,0,9,4a1.43,1.43,0,0,0,.34,1A3.36,3.36,0,0,1,10,7a3.41,3.41,0,0,1-.66,2.06A1.42,1.42,0,0,0,9,10Z"/><path class="cls-4" d="M8,7a1.41,1.41,0,0,1-.33,1A3.35,3.35,0,0,0,7,10H9a1.42,1.42,0,0,1,.34-.95A3.41,3.41,0,0,0,10,7a4.22,4.22,0,0,0,0-.52h-2A1.26,1.26,0,0,1,8,7Z"/><path class="cls-4" d="M4,7a1.41,1.41,0,0,1-.33,1A3.35,3.35,0,0,0,3,10H5a1.42,1.42,0,0,1,.34-.95A3.41,3.41,0,0,0,6,7,4.22,4.22,0,0,0,6,6.5h-2A1.26,1.26,0,0,1,4,7Z"/></g></g></svg>